<svg width="32" height="32" viewBox="0 0 32 32" fill="none" xmlns="http://www.w3.org/2000/svg">
<path d="M6.66659 1.33337H2.66659C2.31296 1.33337 1.97382 1.47385 1.72378 1.7239C1.47373 1.97395 1.33325 2.31309 1.33325 2.66671V29.3334C1.33325 29.687 1.47373 30.0261 1.72378 30.2762C1.97382 30.5262 2.31296 30.6667 2.66659 30.6667H6.66659V1.33337Z" fill="#C4B5FD"/>
<path d="M9.33325 30.6667H22.6666V1.33337H9.33325V30.6667ZM15.9999 25.3334C15.6463 25.3334 15.3072 25.1929 15.0571 24.9429C14.8071 24.6928 14.6666 24.3537 14.6666 24C14.6666 23.6464 14.8071 23.3073 15.0571 23.0572C15.3072 22.8072 15.6463 22.6667 15.9999 22.6667C16.3535 22.6667 16.6927 22.8072 16.9427 23.0572C17.1928 23.3073 17.3333 23.6464 17.3333 24C17.3333 24.3537 17.1928 24.6928 16.9427 24.9429C16.6927 25.1929 16.3535 25.3334 15.9999 25.3334ZM15.9999 6.66671C16.3535 6.66671 16.6927 6.80718 16.9427 7.05723C17.1928 7.30728 17.3333 7.64642 17.3333 8.00004C17.3333 8.35366 17.1928 8.6928 16.9427 8.94285C16.6927 9.1929 16.3535 9.33337 15.9999 9.33337C15.6463 9.33337 15.3072 9.1929 15.0571 8.94285C14.8071 8.6928 14.6666 8.35366 14.6666 8.00004C14.6666 7.64642 14.8071 7.30728 15.0571 7.05723C15.3072 6.80718 15.6463 6.66671 15.9999 6.66671ZM15.9999 14.6667C16.3535 14.6667 16.6927 14.8072 16.9427 15.0572C17.1928 15.3073 17.3333 15.6464 17.3333 16C17.3333 16.3537 17.1928 16.6928 16.9427 16.9429C16.6927 17.1929 16.3535 17.3334 15.9999 17.3334C15.6463 17.3334 15.3072 17.1929 15.0571 16.9429C14.8071 16.6928 14.6666 16.3537 14.6666 16C14.6666 15.6464 14.8071 15.3073 15.0571 15.0572C15.3072 14.8072 15.6463 14.6667 15.9999 14.6667Z" fill="#7C3AED"/>
<path d="M29.3333 1.33337H25.3333V30.6667H29.3333C29.6869 30.6667 30.026 30.5262 30.2761 30.2762C30.5261 30.0261 30.6666 29.687 30.6666 29.3334V2.66671C30.6666 2.31309 30.5261 1.97395 30.2761 1.7239C30.026 1.47385 29.6869 1.33337 29.3333 1.33337Z" fill="#1DB5BE"/>
</svg>
